<svg width="40" height="42" viewBox="0 0 40 42" fill="none" xmlns="http://www.w3.org/2000/svg">
<circle cx="20" cy="20" r="20" fill="#3C82FF"/>
<path d="M26.5932 12.2929C26.9837 11.9024 27.6169 11.9024 28.0074 12.2929C28.3979 12.6834 28.3979 13.3166 28.0074 13.7071L21.3742 20.3403L27.8492 26.8154C28.2398 27.2059 28.2398 27.8391 27.8492 28.2296C27.4587 28.6201 26.8256 28.6201 26.435 28.2296L19.96 21.7545L13.8653 27.8492C13.4747 28.2398 12.8416 28.2398 12.4511 27.8492C12.0605 27.4587 12.0605 26.8256 12.4511 26.435L18.5457 20.3403L12.2929 14.0875C11.9024 13.697 11.9024 13.0638 12.2929 12.6733C12.6834 12.2827 13.3166 12.2827 13.7071 12.6733L19.96 18.9261L26.5932 12.2929Z" fill="white"/>
</svg>
